<?xml version="1.0" standalone="no"?>
<!DOCTYPE svg PUBLIC "-//W3C//DTD SVG 20010904//EN"
 "http://www.w3.org/TR/2001/REC-SVG-20010904/DTD/svg10.dtd">
<svg version="1.0" xmlns="http://www.w3.org/2000/svg"
 width="181.000000pt" height="137.000000pt" viewBox="0 0 181.000000 137.000000"
 preserveAspectRatio="xMidYMid meet">
<metadata>
Created by potrace 1.16, written by Peter Selinger 2001-2019
</metadata>
<g transform="translate(0.000000,137.000000) scale(0.100000,-0.100000)"
fill="#000000" stroke="none">
<path d="M1133 1263 l-122 -56 -3 -89 -3 -90 -129 -56 -128 -56 -155 78 -156
77 -178 -77 -179 -76 0 -429 c0 -416 1 -429 19 -429 11 0 88 29 171 65 83 36
158 65 166 65 8 0 81 -33 162 -74 l148 -74 180 77 179 77 3 192 2 192 77 35
c42 19 79 35 83 35 4 0 53 -25 108 -55 56 -30 106 -55 112 -55 6 0 67 26 135
57 l125 58 0 321 c0 245 -3 324 -12 332 -9 7 -47 -6 -130 -45 l-117 -55 -104
56 c-58 31 -111 56 -118 56 -8 0 -69 -26 -136 -57z m249 -85 l106 -58 85 40
c47 22 88 40 91 40 3 0 6 -112 6 -248 l0 -248 -89 -41 -89 -40 -110 58 -109
59 -77 -35 c-43 -19 -79 -35 -82 -35 -2 0 -4 83 -4 184 0 113 -4 187 -10 191
-5 3 -10 30 -10 59 l0 53 88 41 c48 22 89 40 92 39 3 -1 53 -28 112 -59z
m-517 -322 c66 29 123 53 128 53 4 1 7 -145 7 -322 l0 -324 -119 -51 c-66 -29
-124 -52 -130 -52 -6 0 -79 34 -161 75 l-149 75 -128 -55 c-70 -30 -128 -55
-130 -55 -2 0 -3 146 -3 324 l0 324 93 40 c181 80 139 81 317 -7 l155 -78 120
53z"/>
<path d="M1462 999 c-11 -17 -11 -25 3 -46 16 -24 16 -26 -4 -47 l-21 -22 24
-23 23 -22 17 27 18 26 27 -26 28 -27 16 24 c14 22 14 25 -6 45 l-21 22 24 25
c23 24 23 25 5 45 l-18 20 -24 -22 -23 -21 -23 21 c-29 27 -29 27 -45 1z"/>
<path d="M700 645 l-24 -25 32 -33 32 -33 -30 -30 -30 -30 28 -27 28 -27 29
30 29 30 33 -32 33 -32 27 27 27 27 -32 33 -32 33 32 32 33 32 -28 27 -27 27
-33 -32 -33 -32 -29 30 c-16 16 -32 30 -35 30 -4 0 -17 -11 -30 -25z"/>
</g>
</svg>
