<?xml version="1.0" standalone="no"?>
<!DOCTYPE svg PUBLIC "-//W3C//DTD SVG 20010904//EN"
 "http://www.w3.org/TR/2001/REC-SVG-20010904/DTD/svg10.dtd">
<svg version="1.0" xmlns="http://www.w3.org/2000/svg"
 width="279.000000pt" height="211.000000pt" viewBox="0 0 279.000000 211.000000"
 preserveAspectRatio="xMidYMid meet">
<metadata>
Created by potrace 1.16, written by Peter Selinger 2001-2019
</metadata>
<g transform="translate(0.000000,211.000000) scale(0.100000,-0.100000)"
fill="#000000" stroke="none">
<path d="M1803 1903 l-182 -86 -3 -130 -3 -130 -196 -84 -197 -84 -221 110
c-121 61 -226 111 -232 111 -6 0 -127 -50 -270 -111 l-259 -111 0 -617 c0
-643 0 -641 42 -641 9 0 123 46 253 102 l236 102 227 -113 227 -113 263 113
262 113 0 278 0 279 116 54 c64 30 120 55 124 55 3 0 78 -38 165 -85 l158 -86
189 88 188 87 -2 480 c-3 449 -4 481 -20 484 -10 2 -93 -31 -184 -73 -150 -69
-170 -76 -193 -65 -14 6 -88 45 -163 86 -76 41 -139 74 -140 73 -2 0 -85 -39
-185 -86z m348 -129 l160 -87 122 58 c67 31 128 60 135 62 9 4 12 -72 12 -361
l0 -367 -97 -45 c-54 -25 -114 -52 -134 -60 l-37 -15 -158 86 -159 86 -114
-53 c-62 -29 -118 -54 -122 -56 -5 -2 -9 122 -9 276 0 236 -2 281 -15 292 -11
9 -15 32 -15 80 l0 67 128 61 c70 33 131 61 135 61 4 1 80 -38 168 -85z m-751
-473 c101 43 188 79 192 79 4 0 8 -213 8 -473 l0 -473 -187 -81 -187 -81 -226
113 -226 113 -184 -79 c-101 -43 -188 -79 -192 -79 -4 0 -8 213 -8 474 l0 474
187 80 187 80 226 -113 226 -113 184 79z"/>
<path d="M2278 1523 c-29 -34 -30 -43 -4 -74 32 -38 32 -49 1 -79 -31 -30 -31
-41 1 -71 l26 -24 29 33 c16 17 33 32 38 32 5 0 21 -14 36 -31 l26 -32 29 28
29 28 -30 38 -31 39 31 37 31 37 -27 28 -27 28 -36 -35 -37 -36 -27 36 c-31
40 -37 42 -58 18z"/>
<path d="M1165 990 l-39 -40 44 -45 44 -45 -44 -45 -44 -45 40 -40 40 -40 44
45 44 45 48 -47 48 -47 40 39 40 39 -47 48 -47 48 47 48 47 48 -40 39 -40 39
-48 -47 -47 -47 -46 45 -45 45 -39 -40z"/>
<path d="M547 934 c-4 -4 -7 -38 -7 -76 l0 -68 80 0 81 0 -3 73 -3 72 -70 3
c-39 1 -74 0 -78 -4z"/>
<path d="M850 865 l0 -75 75 0 76 0 -3 73 -3 72 -72 3 -73 3 0 -76z"/>
</g>
</svg>
